<svg xmlns="http://www.w3.org/2000/svg" viewBox="0 0 30 20" id="philippines-flag"><path d="M0 0h30v20H0z"></path><path fill="#00009c" d="M1 1h28v9H1z"></path><path fill="red" d="M1 10h28v9H1z"></path><path fill="#fff" d="M1 19V1l15 9z"></path><path fill="#fcd116" d="m2.492 16.66-.487.352.184-.572-.486-.364h.601l.188-.564.187.564h.602l-.486.364.184.572zM2.303 3.982l-.598.062.445-.404-.238-.558.521.3.443-.394-.118.581.521.3-.603.074-.126.588zM12.923 10.223l-.598.062.445-.404-.238-.558.521.3.443-.394-.118.581.52.3-.602.074-.126.587z"></path><circle cx="5.843" cy="10" r="1.702" fill="#fcd116"></circle><path fill="#fcd116" d="M5.995 9.375h-.313l-.269-2.537.425-.406.426.406zM5.682 10.625h.313l.269 2.537-.426.406-.425-.406zM5.507 9.447l-.221.222-1.985-1.604.014-.588.588-.014zM6.169 10.553l.222-.222 1.984 1.604-.014.588-.588.014z"></path><g fill="#fcd116"><path d="M5.213 9.843v.314l-2.537.269L2.27 10l.406-.426zM6.463 10.157v-.314L9 9.574l.406.426-.406.426z"></path></g><g fill="#fcd116"><path d="m5.286 10.331.221.222-1.604 1.984-.588-.014-.014-.588zM6.391 9.669l-.222-.222 1.604-1.984.588.014.014.588z"></path></g></svg>